<?xml version="1.0" encoding="UTF-8"?>
<svg width="300px" height="300px" viewBox="0 0 300 300" version="1.1" xmlns="http://www.w3.org/2000/svg" xmlns:xlink="http://www.w3.org/1999/xlink">
    <!-- Generator: Sketch 43.2 (39069) - http://www.bohemiancoding.com/sketch -->
    <defs></defs>
    <g id="Page-1" stroke="none" stroke-width="1" fill="none" fill-rule="evenodd">
        <g id="Artboard-6" fill="#00B2E0">
            <path d="M74.1573034,131.117353 L37.0786517,150 L74.1573034,168.539326 L74.1573034,224.719101 L130.20429,224.719101 L150,262.921348 L169.101124,224.719101 L224.719101,224.719101 L224.719101,168.747399 L262.921348,150 L224.719101,130.20429 L224.719101,74.1573034 L168.539326,74.1573034 L150,37.0786517 L131.117353,74.1573034 L74.1573034,74.1573034 L74.1573034,131.117353 Z M49.4382022,124.823138 L49.4382022,49.4382022 L124.823138,49.4382022 L150,0 L174.719101,49.4382022 L249.438202,49.4382022 L249.438202,123.799796 L300,150 L249.438202,174.812734 L249.438202,249.438202 L175.280899,249.438202 L150,300 L123.799796,249.438202 L49.4382022,249.438202 L49.4382022,174.719101 L0,150 L49.4382022,124.823138 Z" id="Combined-Shape"></path>
        </g>
    </g>
</svg>